<svg width="231" height="32" viewBox="0 0 231 32" fill="none" xmlns="http://www.w3.org/2000/svg">
<g clip-path="url(#clip0_1140_276)">
<path d="M0 23.4668V8.57314C0 1.76463 4.85073 0.0625 9.76562 0.0625C14.0209 0.0625 18.7876 1.38162 19.4897 7.08375C19.4936 7.15282 19.4751 7.22131 19.4367 7.27887C19.3983 7.33643 19.342 7.38 19.2767 7.40295L12.8937 8.87104C12.7023 8.87104 12.6174 8.87103 12.6174 8.65826C12.6174 6.08379 11.4895 5.04122 9.74485 5.04122C8.00017 5.04122 7.12787 5.82843 7.12787 8.61567V23.5093C7.12787 26.2965 8.17038 27.0625 9.74485 27.0625C11.3193 27.0625 12.6174 26.0199 12.6174 23.4455C12.6174 23.2752 12.6171 23.2327 12.8937 23.2327L19.2767 24.7221C19.3424 24.7373 19.3996 24.7759 19.4388 24.8308C19.478 24.8856 19.4966 24.9529 19.4897 25.02C18.7876 30.7434 13.9997 32.0412 9.76562 32.0412C4.85073 32.0412 0 30.2965 0 23.5306" fill="#FEDF60"/>
<path d="M22.0645 23.5528V8.46767C22.0645 1.5315 27.3833 -0.0429688 31.8301 -0.0429688C36.2769 -0.0429688 41.5957 1.48895 41.5957 8.46767V23.5528C41.5957 30.4677 36.2769 32.0634 31.8301 32.0634C27.3833 32.0634 22.0645 30.5315 22.0645 23.5528ZM34.4471 23.5528V8.46767C34.4471 5.68044 33.4045 4.97828 31.8301 4.97828C30.2556 4.97828 29.2131 5.68044 29.2131 8.46767V23.5528C29.2131 26.34 30.2556 27.0209 31.8301 27.0209C33.4045 27.0209 34.4471 26.34 34.4471 23.5528Z" fill="#FEDF60"/>
<path d="M44.8936 23.4668V8.57314C44.8936 1.76463 49.7443 0.0625 54.6592 0.0625C58.9145 0.0625 63.6801 1.38162 64.3822 7.08375C64.3861 7.15282 64.3676 7.22131 64.3292 7.27887C64.2908 7.33643 64.2355 7.38 64.1703 7.40295L57.7873 8.87104C57.6171 8.87104 57.5099 8.87103 57.5099 8.65826C57.5099 6.08379 56.3831 5.04122 54.6384 5.04122C52.8937 5.04122 52.0214 5.82843 52.0214 8.61567V23.5093C52.0214 26.2965 53.0639 27.0625 54.6384 27.0625C56.2129 27.0625 57.5099 26.0199 57.5099 23.4455C57.5099 23.2752 57.5107 23.2327 57.7873 23.2327L64.1703 24.7221C64.2359 24.7373 64.2932 24.7759 64.3323 24.8308C64.3715 24.8856 64.3891 24.9529 64.3822 25.02C63.6801 30.7434 58.8932 32.0412 54.6592 32.0412C49.7443 32.0412 44.8936 30.2965 44.8936 23.5306" fill="#FEDF60"/>
<path d="M67.4904 30.9986V0.998564C67.4871 0.964216 67.4912 0.92955 67.5028 0.897077C67.5145 0.864603 67.5324 0.835118 67.5568 0.810718C67.5812 0.786319 67.6116 0.767648 67.6441 0.755982C67.6766 0.744316 67.7105 0.739961 67.7449 0.743255H74.3627C74.5329 0.743255 74.639 0.743245 74.639 0.998564V11.8709L81.022 0.956034C81.0535 0.892542 81.1021 0.838997 81.1622 0.801433C81.2223 0.763869 81.2908 0.743746 81.3617 0.743255H86.8086C87.0214 0.743255 87.1068 0.743268 87.1068 0.956034C87.1184 1.03361 87.1184 1.11247 87.1068 1.19005L80.4901 12.5092L87.0642 30.956V31.1262C87.0642 31.1262 87.064 31.2539 86.8512 31.2539H79.9581C79.8983 31.2509 79.8411 31.2285 79.795 31.1901C79.749 31.1518 79.7163 31.0994 79.7026 31.0411L76.1703 19.8922L74.745 22.2752V30.9986C74.745 31.1688 74.6388 31.2539 74.4686 31.2539H67.8519C67.8175 31.2572 67.7826 31.2528 67.7501 31.2412C67.7176 31.2295 67.6883 31.2108 67.6639 31.1864C67.6395 31.162 67.6205 31.1325 67.6088 31.1001C67.5971 31.0676 67.593 31.0329 67.5963 30.9986" fill="#FEDF60"/>
<path d="M88.1497 24.9787C88.1497 24.8085 88.1489 24.7234 88.3191 24.6809L94.7021 23.1915C94.8723 23.1915 94.915 23.1915 94.915 23.4043C95.0427 26.2128 96.1073 27.0425 97.8094 27.0425C99.5115 27.0425 100.681 26.0213 100.681 23.4043C100.681 17.4894 88.851 16.8723 88.851 8.14891C88.851 2.48933 92.9999 0 97.8935 0C102.787 0 106.405 2.12766 107.043 6.97872C107.043 7.14893 107.043 7.23407 106.83 7.27662L100.809 8.68082C100.681 8.68082 100.553 8.68085 100.553 8.51064C100.404 6.02128 99.234 4.97872 97.8935 4.97872C97.561 4.95678 97.2279 5.00617 96.9159 5.12351C96.604 5.24086 96.3205 5.42344 96.0848 5.65913C95.8491 5.89481 95.6671 6.17815 95.5498 6.49011C95.4325 6.80208 95.3824 7.13552 95.4044 7.46811C95.4044 11.5532 107.831 13.3404 107.831 22.9787C107.831 29.2553 103.106 32 97.8935 32C91.8297 32 88.6386 29.2979 88.1279 24.9787" fill="#FEDF60"/>
<path d="M131.042 18.6603V20.6604C131.045 20.6975 131.04 20.7349 131.027 20.77C131.015 20.805 130.995 20.8368 130.968 20.8631C130.942 20.8895 130.911 20.9098 130.876 20.9225C130.841 20.9353 130.803 20.9402 130.766 20.937H115.383C115.212 20.937 115.127 20.9369 115.127 20.6604V18.6603C115.124 18.626 115.128 18.5914 115.14 18.5589C115.151 18.5265 115.17 18.497 115.195 18.4726C115.219 18.4482 115.248 18.4294 115.281 18.4178C115.313 18.4061 115.348 18.4017 115.383 18.405H130.808C130.978 18.405 131.085 18.405 131.085 18.6603H131.042ZM130.021 15.7881C130.024 15.8168 130.021 15.8459 130.011 15.8733C130.002 15.9007 129.987 15.9256 129.967 15.946C129.946 15.9665 129.921 15.9821 129.894 15.9916C129.867 16.0011 129.836 16.0042 129.808 16.0008H126.234C126.135 16.0025 126.036 15.9802 125.947 15.9358C125.858 15.8913 125.781 15.826 125.723 15.7455L125.319 15.2561C124.287 15.9879 123.051 16.3751 121.786 16.3625C119.084 16.3625 116.83 15.0859 116.83 12.3412C116.879 11.5173 117.134 10.719 117.573 10.0199C118.011 9.32084 118.619 8.74355 119.34 8.34125C118.539 7.3144 118.071 6.06706 118 4.76673C117.955 4.18368 118.04 3.5981 118.248 3.05158C118.456 2.50506 118.782 2.01101 119.203 1.60472C119.623 1.19843 120.128 0.889851 120.681 0.700882C121.234 0.511912 121.822 0.447203 122.404 0.511413C122.956 0.445171 123.517 0.501014 124.046 0.674909C124.575 0.848804 125.059 1.13654 125.465 1.51791C125.871 1.89928 126.189 2.36497 126.395 2.88217C126.601 3.39938 126.691 3.95552 126.659 4.51142C126.593 5.43751 126.298 6.33274 125.801 7.11646C125.303 7.90017 124.618 8.54776 123.808 9.00082L125.34 10.7029C125.54 10.1735 125.626 9.60828 125.595 9.04335C125.595 8.87314 125.596 8.78804 125.872 8.78804H128.297C128.489 8.78804 128.575 8.78803 128.575 9.04335C128.678 10.4314 128.252 11.8073 127.383 12.8944L129.957 15.5965C129.974 15.652 129.974 15.7112 129.957 15.7668L130.021 15.7881ZM123.425 13.2774L121.17 10.7455C120.894 10.9368 120.668 11.1909 120.509 11.4867C120.35 11.7825 120.262 12.1118 120.255 12.4476C120.243 12.6501 120.273 12.853 120.344 13.0429C120.416 13.2328 120.526 13.4056 120.669 13.5501C120.811 13.6945 120.982 13.8074 121.171 13.8814C121.36 13.9554 121.563 13.9889 121.766 13.9795C122.077 13.9911 122.387 13.9342 122.674 13.8129C122.96 13.6915 123.216 13.5087 123.425 13.2774ZM123.425 4.34124C123.425 3.38379 122.915 3.04333 122.298 3.04333C121.681 3.04333 121.213 3.38376 121.213 4.51142C121.21 5.29244 121.489 6.04819 121.999 6.63908C122.432 6.42636 122.795 6.09575 123.048 5.68538C123.3 5.275 123.43 4.80161 123.425 4.31994" fill="#FEDF60"/>
<path d="M137.915 23.4668V8.57314C137.915 1.76463 142.767 0.0625 147.682 0.0625C151.937 0.0625 156.703 1.38162 157.405 7.08375C157.409 7.15282 157.39 7.22131 157.352 7.27887C157.313 7.33643 157.257 7.38 157.192 7.40295L150.809 8.87104C150.617 8.87104 150.532 8.87103 150.532 8.65826C150.532 6.08379 149.405 5.04122 147.66 5.04122C145.915 5.04122 145.043 5.82843 145.043 8.61567V23.5093C145.043 26.2965 146.085 27.0625 147.66 27.0625C149.234 27.0625 150.532 26.0199 150.532 23.4455C150.532 23.2752 150.532 23.2327 150.809 23.2327L157.192 24.7221C157.257 24.7373 157.316 24.7759 157.355 24.8308C157.394 24.8856 157.412 24.9529 157.405 25.02C156.703 30.7434 151.916 32.0412 147.682 32.0412C142.767 32.0412 137.915 30.2965 137.915 23.5306" fill="#FEDF60"/>
<path d="M160.063 23.5528V8.46767C160.063 1.5315 165.382 -0.0429688 169.829 -0.0429688C174.276 -0.0429688 179.596 1.48895 179.596 8.46767V23.5528C179.596 30.4677 174.276 32.0634 169.829 32.0634C165.382 32.0634 160.063 30.5315 160.063 23.5528ZM172.446 23.5528V8.46767C172.446 5.68044 171.404 4.97828 169.829 4.97828C168.255 4.97828 167.212 5.68044 167.212 8.46767V23.5528C167.212 26.34 168.255 27.0209 169.829 27.0209C171.404 27.0209 172.446 26.34 172.446 23.5528Z" fill="#FEDF60"/>
<path d="M188 31.0865L181.341 1.10776C181.341 0.91627 181.341 0.746094 181.639 0.746094H188.319C188.532 0.746094 188.575 0.746104 188.617 1.0227L191.49 14.7887L194.149 0.958873C194.149 0.78866 194.15 0.746094 194.362 0.746094H199.085C199.255 0.746094 199.298 0.746107 199.341 0.958873L202.213 14.7887L204.83 1.0227C204.83 0.788657 204.958 0.746094 205.086 0.746094H209.894C210.192 0.746094 210.192 0.91627 210.192 1.10776L203.618 31.0865C203.616 31.1139 203.606 31.1404 203.593 31.1643C203.579 31.1882 203.561 31.2089 203.539 31.225C203.517 31.2412 203.492 31.2524 203.465 31.2578C203.438 31.2633 203.41 31.2629 203.383 31.2567H198.851C198.724 31.2567 198.681 31.2568 198.638 31.0865L195.766 17.5759L192.894 31.0865C192.892 31.1139 192.884 31.1404 192.87 31.1643C192.857 31.1882 192.838 31.2089 192.815 31.225C192.793 31.2412 192.769 31.2524 192.742 31.2578C192.715 31.2633 192.686 31.2629 192.66 31.2567H188.128C188 31.2567 187.958 31.2568 187.915 31.0865" fill="#FEDF60"/>
<path d="M211.127 24.9787C211.127 24.8085 211.127 24.7234 211.298 24.6809L217.681 23.1915C217.872 23.1915 217.914 23.1915 217.914 23.4043C218.042 26.2128 219.085 27.0425 220.787 27.0425C222.489 27.0425 223.659 26.0213 223.659 23.4043C223.659 17.4894 211.85 16.8723 211.85 8.14891C211.85 2.48933 216.106 0 220.872 0C225.638 0 229.382 2.12766 230.021 6.97872C230.021 7.14893 230.02 7.23407 229.808 7.27662L223.787 8.68082C223.66 8.68082 223.532 8.68085 223.532 8.51064C223.404 6.02128 222.212 4.97872 220.872 4.97872C220.539 4.95678 220.205 5.00617 219.893 5.12351C219.581 5.24086 219.299 5.42344 219.063 5.65913C218.828 5.89481 218.645 6.17815 218.527 6.49011C218.41 6.80208 218.361 7.13552 218.383 7.46811C218.383 11.5532 230.808 13.3404 230.808 22.9787C230.808 29.2553 226.106 32 220.872 32C214.808 32 211.638 29.2979 211.106 24.9787" fill="#FEDF60"/>
</g>
<defs>
<clipPath id="clip0_1140_276">
<rect width="230.851" height="32" fill="white"/>
</clipPath>
</defs>
</svg>
